<svg width="200" height="153" viewBox="0 0 200 153" fill="none" xmlns="http://www.w3.org/2000/svg">
<g clip-path="url(#clip0_212_1510)">
<path d="M71.1476 35.4065C71.0646 35.4064 70.9847 35.3749 70.924 35.3182C70.8633 35.2616 70.8263 35.1841 70.8205 35.1012C70.6059 32.1849 69.298 29.4571 67.1584 27.4638C65.0188 25.4705 62.2054 24.3587 59.2812 24.3508C58.9312 24.3508 58.5636 24.3686 58.1884 24.4037C58.1257 24.4096 58.0626 24.3973 58.0066 24.3683C57.9507 24.3393 57.9043 24.2948 57.873 24.2401C56.5297 21.8889 54.5238 19.9854 52.1056 18.7671C49.6873 17.5488 46.9638 17.0696 44.275 17.3894C41.5861 17.7092 39.051 18.8138 36.986 20.5653C34.9209 22.3169 33.4174 24.6378 32.6631 27.2384C32.6432 27.3081 32.6007 27.3692 32.5423 27.412C32.4838 27.4549 32.4128 27.4771 32.3403 27.4752L32.253 27.4726C32.2076 27.4711 32.1623 27.4694 32.1165 27.4694C29.8985 27.4764 27.7496 28.2415 26.0262 29.6378C24.3029 31.0341 23.1088 32.9776 22.642 35.146C22.6265 35.2197 22.5861 35.2858 22.5276 35.3332C22.4691 35.3806 22.3961 35.4065 22.3208 35.4065H0.328259C0.241346 35.4063 0.158073 35.3716 0.0966974 35.3101C0.0353221 35.2485 0.000854492 35.1652 0.000854492 35.0783C0.000854492 34.9913 0.0353221 34.908 0.0966974 34.8464C0.158073 34.7849 0.241346 34.7502 0.328259 34.75H22.0581C22.6051 32.4946 23.8918 30.4875 25.7129 29.0489C27.534 27.6102 29.7844 26.823 32.1052 26.8129C32.9314 24.1404 34.5159 21.7654 36.6662 19.9764C38.8166 18.1873 41.4402 17.0613 44.2183 16.735C46.9965 16.4087 49.8096 16.8963 52.316 18.1384C54.8223 19.3805 56.914 21.3238 58.3369 23.7321C58.6598 23.707 58.9766 23.6943 59.2812 23.6943C62.3714 23.7027 65.3445 24.8777 67.6055 26.9842C69.8665 29.0907 71.2487 31.9733 71.4754 35.0553C71.4785 35.0983 71.473 35.1414 71.4593 35.1823C71.4457 35.2232 71.4241 35.261 71.3958 35.2936C71.3675 35.3261 71.3331 35.3528 71.2945 35.372C71.2559 35.3913 71.2139 35.4027 71.1709 35.4057C71.1631 35.4063 71.1554 35.4065 71.1476 35.4065Z" fill="#CBCBCB"/>
<path d="M67.2418 39.6155H13.4049C13.3179 39.6155 13.2344 39.5809 13.1728 39.5194C13.1112 39.4578 13.0767 39.3743 13.0767 39.2873C13.0767 39.2002 13.1112 39.1167 13.1728 39.0551C13.2344 38.9936 13.3179 38.959 13.4049 38.959H67.2418C67.3289 38.959 67.4124 38.9936 67.4739 39.0551C67.5355 39.1167 67.5701 39.2002 67.5701 39.2873C67.5701 39.3743 67.5355 39.4578 67.4739 39.5194C67.4124 39.5809 67.3289 39.6155 67.2418 39.6155Z" fill="#CBCBCB"/>
<path d="M26.5359 44.3755H8.48082C8.43764 44.3756 8.39485 44.3672 8.35493 44.3507C8.315 44.3343 8.2787 44.3101 8.24813 44.2796C8.21755 44.2491 8.1933 44.2129 8.17674 44.173C8.16019 44.1332 8.15167 44.0904 8.15167 44.0472C8.15167 44.004 8.16019 43.9613 8.17674 43.9214C8.1933 43.8815 8.21755 43.8453 8.24813 43.8148C8.2787 43.7843 8.315 43.7601 8.35493 43.7437C8.39485 43.7272 8.43764 43.7188 8.48082 43.7189H26.5359C26.6228 43.7192 26.7061 43.7539 26.7674 43.8154C26.8288 43.8769 26.8633 43.9603 26.8633 44.0472C26.8633 44.1341 26.8288 44.2175 26.7674 44.279C26.7061 44.3406 26.6228 44.3753 26.5359 44.3755Z" fill="#CBCBCB"/>
<path d="M43.4165 108.249C43.4165 121.595 29.4247 127.981 29.4247 127.981C29.4247 127.981 15.2895 121.595 15.0025 108.249C14.8338 100.404 21.3632 94.0417 29.2095 94.0417C31.0752 94.0417 32.9226 94.4092 34.6463 95.1232C36.3699 95.8372 37.9361 96.8836 39.2554 98.2029C40.5746 99.5221 41.6211 101.088 42.3351 102.812C43.049 104.536 43.4165 106.383 43.4165 108.249Z" fill="#E5E5E5"/>
<path d="M34.1605 128.77H24.6891L23.541 124.178H35.3084L34.1605 128.77Z" fill="#CBCBCB"/>
<path d="M33.8375 136.623H25.012V141.223H33.8375V136.623Z" fill="white"/>
<path d="M33.9093 141.294H24.9402V136.552H33.9093V141.294ZM25.0837 141.151H33.7658V136.695H25.0837V141.151Z" fill="#CBCBCB"/>
<path d="M31.2339 129.312H27.6157L27.2005 128.659H31.6491L31.2339 129.312Z" fill="#CBCBCB"/>
<path d="M24.9043 128.77H24.7608V135.802H24.9043V128.77Z" fill="#CBCBCB"/>
<path d="M34.0886 128.77H33.9451V135.802H34.0886V128.77Z" fill="#CBCBCB"/>
<path d="M30.8632 124.1L30.7756 123.986C34.9213 120.789 39.8632 115.312 39.8632 107.375C39.8665 104.596 39.049 101.877 37.5132 99.5597C35.9774 97.2427 33.7916 95.4307 31.23 94.351L31.2859 94.2189C33.8735 95.3095 36.0814 97.1399 37.6329 99.4804C39.1843 101.821 40.0101 104.567 40.0067 107.375C40.0067 115.371 35.0344 120.883 30.8632 124.1Z" fill="#CBCBCB"/>
<path d="M26.271 124.1L26.1833 123.986C30.3291 120.789 35.2711 115.312 35.2711 107.375C35.2722 104.614 34.4645 101.913 32.9477 99.6061C31.4309 97.2989 29.2715 95.4866 26.7362 94.393L26.7931 94.2612C29.3541 95.366 31.5354 97.1967 33.0676 99.5273C34.5998 101.858 35.4157 104.586 35.4146 107.375C35.4146 115.371 30.4422 120.883 26.271 124.1Z" fill="#CBCBCB"/>
<path d="M32.1479 124.1C27.9767 120.883 23.0044 115.371 23.0044 107.375C23.0033 104.586 23.8192 101.858 25.3514 99.5273C26.8836 97.1967 29.065 95.3659 31.626 94.2612L31.6829 94.393C29.1476 95.4866 26.9881 97.2989 25.4713 99.6061C23.9545 101.913 23.1468 104.614 23.1479 107.375C23.1479 115.312 28.0898 120.789 32.2356 123.986L32.1479 124.1Z" fill="#CBCBCB"/>
<path d="M27.5558 124.1C23.3846 120.883 18.4123 115.371 18.4123 107.375C18.4076 104.556 19.2392 101.799 20.8019 99.4529C22.3646 97.1066 24.5882 95.2766 27.1913 94.1943L27.2466 94.3268C24.6697 95.3981 22.4684 97.2098 20.9214 99.5325C19.3744 101.855 18.5511 104.585 18.5557 107.375C18.5557 115.312 23.4977 120.789 27.6434 123.986L27.5558 124.1Z" fill="#CBCBCB"/>
<path d="M29.2813 94.0417H29.1378V124.178H29.2813V94.0417Z" fill="#CBCBCB"/>
<path d="M27.5927 135.581L24.9612 138.212L25.0627 138.314L27.6942 135.682L27.5927 135.581Z" fill="#CBCBCB"/>
<path d="M28.8719 135.537L24.9602 139.651L25.0642 139.75L28.9759 135.636L28.8719 135.537Z" fill="#CBCBCB"/>
<path d="M34.6627 135.587H23.8998V136.878H34.6627V135.587Z" fill="white"/>
<path d="M34.7345 136.95H23.8281V135.515H34.7345V136.95ZM23.9716 136.806H34.591V135.658H23.9716V136.806Z" fill="#CBCBCB"/>
<path d="M70.4945 74.426C70.4945 83.2349 61.2594 87.4499 61.2594 87.4499C61.2594 87.4499 51.9295 83.2349 51.74 74.426C51.6287 69.2482 55.9384 65.0487 61.1173 65.0487C63.6043 65.0487 65.9894 66.0367 67.748 67.7952C69.5066 69.5538 70.4945 71.939 70.4945 74.426Z" fill="#E5E5E5"/>
<path d="M64.3851 87.9709H58.1335L57.3759 84.9398H65.143L64.3851 87.9709Z" fill="#CBCBCB"/>
<path d="M64.172 93.1545H58.3467V96.1902H64.172V93.1545Z" fill="white"/>
<path d="M64.2194 96.2375H58.2994V93.1071H64.2194V96.2375ZM58.3941 96.1428H64.1246V93.2018H58.3941V96.1428Z" fill="#CBCBCB"/>
<path d="M62.4534 88.3283H60.0652L59.7911 87.8976H62.7275L62.4534 88.3283Z" fill="#CBCBCB"/>
<path d="M58.2757 87.9709H58.181V92.6122H58.2757V87.9709Z" fill="#CBCBCB"/>
<path d="M64.3378 87.9709H64.243V92.6122H64.3378V87.9709Z" fill="#CBCBCB"/>
<path d="M62.2088 84.8885L62.151 84.8135C64.8874 82.7033 68.1492 79.0883 68.1492 73.8495C68.1514 72.0147 67.6118 70.2201 66.5981 68.6908C65.5844 67.1615 64.1417 65.9655 62.451 65.2528L62.4879 65.1656C64.1958 65.8855 65.6531 67.0936 66.6771 68.6384C67.7011 70.1833 68.2462 71.9961 68.244 73.8495C68.244 79.1267 64.962 82.7654 62.2088 84.8885Z" fill="#CBCBCB"/>
<path d="M59.1778 84.8886L59.1199 84.8135C61.8563 82.7034 65.1182 79.0883 65.1182 73.8495C65.119 72.0271 64.5858 70.2443 63.5847 68.7215C62.5835 67.1986 61.1582 66.0024 59.4848 65.2806L59.5224 65.1936C61.2128 65.9228 62.6525 67.1311 63.6638 68.6694C64.6751 70.2077 65.2137 72.0086 65.2129 73.8495C65.2129 79.1268 61.931 82.7654 59.1778 84.8886Z" fill="#CBCBCB"/>
<path d="M63.0568 84.8886C60.3036 82.7654 57.0217 79.1268 57.0217 73.8496C57.0209 72.0086 57.5595 70.2077 58.5708 68.6694C59.5821 67.1311 61.0219 65.9228 62.7123 65.1936L62.7499 65.2806C61.0764 66.0024 59.6511 67.1986 58.6499 68.7215C57.6488 70.2443 57.1156 72.0271 57.1164 73.8496C57.1164 79.0883 60.3783 82.7034 63.1146 84.8135L63.0568 84.8886Z" fill="#CBCBCB"/>
<path d="M60.0258 84.8885C57.2726 82.7654 53.9906 79.1268 53.9906 73.8495C53.9875 71.9888 54.5364 70.169 55.5679 68.6203C56.5994 67.0716 58.067 65.8637 59.7852 65.1494L59.8217 65.2368C58.1208 65.944 56.6679 67.1397 55.6468 68.6728C54.6257 70.2059 54.0823 72.0075 54.0853 73.8495C54.0853 79.0883 57.3472 82.7033 60.0836 84.8135L60.0258 84.8885Z" fill="#CBCBCB"/>
<path d="M61.1647 65.0487H61.0699V84.9398H61.1647V65.0487Z" fill="#CBCBCB"/>
<path d="M60.0501 92.4662L58.3132 94.2031L58.3802 94.2701L60.1171 92.5332L60.0501 92.4662Z" fill="#CBCBCB"/>
<path d="M60.8945 92.4373L58.3126 95.1528L58.3813 95.218L60.9632 92.5025L60.8945 92.4373Z" fill="#CBCBCB"/>
<path d="M64.7167 92.4701H57.6127V93.3226H64.7167V92.4701Z" fill="white"/>
<path d="M64.764 93.3699H57.5653V92.4227H64.764V93.3699ZM57.66 93.2752H64.6693V92.5174H57.66V93.2752Z" fill="#CBCBCB"/>
<path d="M149.002 86.4694C149.062 86.4693 149.119 86.4467 149.163 86.4061C149.206 86.3655 149.233 86.3099 149.237 86.2506C149.391 84.1602 150.328 82.205 151.862 80.7762C153.395 79.3474 155.412 78.5505 157.508 78.5448C157.759 78.5448 158.022 78.5576 158.291 78.5827C158.336 78.587 158.381 78.5781 158.422 78.5573C158.462 78.5365 158.495 78.5046 158.517 78.4654C159.48 76.7801 160.918 75.4157 162.651 74.5425C164.385 73.6692 166.337 73.3257 168.264 73.555C170.192 73.7842 172.009 74.5759 173.489 75.8314C174.969 77.0869 176.047 78.7505 176.587 80.6146C176.602 80.6645 176.632 80.7083 176.674 80.739C176.716 80.7698 176.767 80.7857 176.819 80.7843L176.881 80.7824C176.914 80.7813 176.946 80.7802 176.979 80.7802C178.569 80.7852 180.109 81.3336 181.345 82.3344C182.58 83.3353 183.436 84.7284 183.77 86.2826C183.782 86.3354 183.811 86.3828 183.852 86.4168C183.894 86.4508 183.947 86.4694 184.001 86.4694H199.765C199.796 86.4695 199.826 86.4635 199.855 86.4517C199.884 86.4399 199.91 86.4226 199.932 86.4007C199.953 86.3789 199.971 86.3529 199.983 86.3243C199.995 86.2957 200.001 86.265 200.001 86.2341C200.001 86.2031 199.995 86.1725 199.983 86.1439C199.971 86.1153 199.953 86.0893 199.932 86.0674C199.91 86.0456 199.884 86.0283 199.855 86.0165C199.826 86.0047 199.796 85.9987 199.765 85.9988H184.189C183.797 84.3822 182.875 82.9435 181.569 81.9123C180.264 80.8811 178.651 80.3168 176.987 80.3096C176.395 78.394 175.259 76.6916 173.718 75.4092C172.177 74.1269 170.296 73.3197 168.305 73.0859C166.313 72.852 164.297 73.2015 162.501 74.0918C160.704 74.9822 159.205 76.3751 158.185 78.1013C157.953 78.0833 157.726 78.0742 157.508 78.0742C155.293 78.0802 153.162 78.9224 151.541 80.4324C149.921 81.9423 148.93 84.0085 148.767 86.2176C148.765 86.2484 148.769 86.2794 148.779 86.3087C148.789 86.338 148.804 86.3651 148.824 86.3884C148.845 86.4118 148.869 86.4309 148.897 86.4447C148.925 86.4584 148.955 86.4667 148.986 86.4688C148.991 86.4692 148.997 86.4694 149.002 86.4694Z" fill="#CBCBCB"/>
<path d="M151.802 89.4864H190.391C190.454 89.4864 190.514 89.4616 190.558 89.4175C190.602 89.3734 190.627 89.3135 190.627 89.2511C190.627 89.1887 190.602 89.1289 190.558 89.0847C190.514 89.0406 190.454 89.0158 190.391 89.0158H151.802C151.739 89.0158 151.68 89.0406 151.636 89.0847C151.591 89.1289 151.567 89.1887 151.567 89.2511C151.567 89.3135 151.591 89.3734 151.636 89.4175C151.68 89.4616 151.739 89.4864 151.802 89.4864Z" fill="#CBCBCB"/>
<path d="M180.979 92.8983H193.921C193.983 92.8981 194.043 92.8732 194.087 92.8291C194.131 92.785 194.156 92.7253 194.156 92.663C194.156 92.6007 194.131 92.541 194.087 92.4968C194.043 92.4527 193.983 92.4279 193.921 92.4277H180.979C180.949 92.4277 180.918 92.4338 180.889 92.4456C180.861 92.4574 180.835 92.4747 180.813 92.4966C180.791 92.5184 180.774 92.5444 180.762 92.5729C180.75 92.6015 180.744 92.6321 180.744 92.663C180.744 92.6939 180.75 92.7245 180.762 92.753C180.774 92.7816 180.791 92.8075 180.813 92.8294C180.835 92.8512 180.861 92.8685 180.889 92.8804C180.918 92.8922 180.949 92.8983 180.979 92.8983Z" fill="#CBCBCB"/>
<path d="M120.843 149.674H120.068L119.7 146.686H120.843V149.674Z" fill="#9F616A"/>
<path d="M121.04 150.425H118.543V150.393C118.543 150.135 118.646 149.888 118.828 149.706C119.01 149.524 119.257 149.421 119.515 149.421H121.04V150.425Z" fill="#2F2E41"/>
<path d="M130.831 148.206L130.167 148.605L128.312 146.234L129.292 145.645L130.831 148.206Z" fill="#9F616A"/>
<path d="M129.246 150.034L129.23 150.007C129.097 149.786 129.058 149.522 129.12 149.271C129.183 149.021 129.342 148.806 129.563 148.673L130.87 147.888L131.387 148.748L129.246 150.034Z" fill="#2F2E41"/>
<path d="M121.044 149.057L121.031 149.057C120.654 149.056 120.278 149.034 119.903 148.992C119.761 148.978 119.606 148.963 119.419 148.948L119.413 148.946C119.285 148.909 119.282 147.715 119.336 143.63C119.364 141.537 119.395 139.165 119.358 137.655L119.357 137.64L119.368 137.63C120.042 137.04 120.846 136.617 121.714 136.396C122.583 136.176 123.491 136.164 124.365 136.362L124.378 136.365L124.385 136.377C125.147 137.665 126.296 139.52 127.408 141.314C129.959 145.433 130.689 146.644 130.609 146.736L130.599 146.743C130.425 146.83 130.294 146.897 130.183 146.954C129.743 147.182 129.291 147.386 128.828 147.565L128.808 147.574L128.793 147.557C126.204 144.72 124.049 141.551 122.717 138.622C122.561 139.622 122.372 140.928 122.172 142.308C121.598 146.276 121.21 148.889 121.054 149.048L121.044 149.057Z" fill="#2F2E41"/>
<path d="M121.742 137.96C123.286 137.953 124.819 138.21 126.277 138.719C126.327 136.273 125.507 133.888 123.963 131.99L123.951 131.976L123.957 131.959C124.364 130.784 124.784 129.569 125.16 128.361L125.154 128.34C124.891 127.404 124.325 126.458 123.425 125.447C123.328 125.346 123.195 125.286 123.055 125.279C122.915 125.272 122.777 125.318 122.67 125.409C121.881 126.13 121.267 127.02 120.874 128.014C120.481 129.007 120.319 130.076 120.4 131.142L120.401 131.148L120.399 131.153C119.695 133.54 119.439 134.766 119.213 135.848C119.049 136.637 118.906 137.32 118.62 138.296C119.646 138.073 120.692 137.96 121.742 137.96Z" fill="#CBCBCB"/>
<path opacity="0.1" d="M124.015 130.415L121.723 135.405L120.413 134.079L124.015 130.415Z" fill="black"/>
<path d="M123.035 124.961C123.935 124.961 124.665 124.231 124.665 123.331C124.665 122.43 123.935 121.7 123.035 121.7C122.134 121.7 121.404 122.43 121.404 123.331C121.404 124.231 122.134 124.961 123.035 124.961Z" fill="#9F616A"/>
<path d="M121.058 122.41H123.647V121.281C123.079 121.055 122.523 120.863 122.186 121.281C121.887 121.281 121.6 121.4 121.388 121.612C121.177 121.823 121.058 122.11 121.058 122.41Z" fill="#2F2E41"/>
<path d="M123.79 121.082C125.338 121.082 125.771 123.022 125.771 124.117C125.771 124.727 125.495 124.945 125.062 125.019L124.908 124.202L124.55 125.055C124.428 125.055 124.3 125.053 124.167 125.05L124.045 124.8L123.774 125.046C122.687 125.047 121.809 125.206 121.809 124.117C121.809 123.022 122.189 121.082 123.79 121.082Z" fill="#2F2E41"/>
<path d="M170.544 45.75C170.544 88.7274 125.487 109.292 125.487 109.292C125.487 109.292 79.968 88.7274 79.0438 45.75C78.5006 20.4888 99.5268 0 124.794 0C150.061 0 170.544 20.483 170.544 45.75Z" fill="#FFCDD3"/>
<path d="M126.454 149.336H125.504L125.052 145.673H126.454V149.336Z" fill="#CAC1C1"/>
<path d="M124.825 149.065H126.657V150.218H123.672C123.672 150.067 123.702 149.917 123.76 149.777C123.818 149.637 123.903 149.51 124.01 149.403C124.117 149.295 124.244 149.211 124.384 149.153C124.524 149.095 124.674 149.065 124.825 149.065Z" fill="#2F2E41"/>
<path d="M130.017 149.336H129.067L128.615 145.673H130.017L130.017 149.336Z" fill="#CAC1C1"/>
<path d="M128.389 149.065H130.22V150.218H127.236C127.236 149.912 127.357 149.619 127.573 149.403C127.79 149.186 128.083 149.065 128.389 149.065Z" fill="#2F2E41"/>
<path d="M129.901 138.426C129.799 138.36 129.712 138.273 129.647 138.17C129.582 138.067 129.541 137.951 129.526 137.83C129.51 137.71 129.522 137.587 129.559 137.471C129.596 137.355 129.658 137.249 129.741 137.16L129.116 128.286L130.917 128.46L130.967 137.151C131.107 137.3 131.188 137.495 131.195 137.7C131.201 137.905 131.132 138.105 131 138.262C130.869 138.419 130.684 138.522 130.482 138.553C130.279 138.583 130.073 138.538 129.901 138.426Z" fill="#CAC1C1"/>
<path d="M126.409 147.491L125.363 147.441C125.274 147.437 125.19 147.398 125.128 147.334C125.066 147.27 125.032 147.184 125.031 147.095L124.958 136.517C124.958 136.466 124.968 136.417 124.989 136.371C125.01 136.325 125.04 136.284 125.078 136.251C125.116 136.218 125.16 136.194 125.208 136.18C125.256 136.166 125.307 136.162 125.357 136.169L129.54 136.776C129.622 136.788 129.698 136.829 129.753 136.892C129.808 136.955 129.838 137.035 129.838 137.119L130.376 146.921C130.376 146.967 130.368 147.012 130.35 147.055C130.333 147.098 130.307 147.136 130.275 147.169C130.242 147.202 130.204 147.228 130.161 147.245C130.119 147.263 130.073 147.272 130.027 147.272H128.9C128.817 147.272 128.737 147.243 128.673 147.189C128.61 147.135 128.568 147.06 128.556 146.978C128.556 146.978 127.705 139.625 127.588 139.629C127.47 139.632 126.771 147.184 126.771 147.184C126.761 147.269 126.72 147.346 126.656 147.403C126.593 147.46 126.51 147.491 126.425 147.491C126.42 147.491 126.414 147.491 126.409 147.491Z" fill="#2F2E41"/>
<path d="M129.524 131.267C129.481 131.237 129.447 131.198 129.422 131.152C129.397 131.106 129.382 131.056 129.38 131.004L129.248 128.612C129.235 128.375 129.31 128.142 129.459 127.957C129.607 127.772 129.819 127.649 130.054 127.611C130.288 127.573 130.528 127.624 130.727 127.752C130.927 127.881 131.072 128.079 131.134 128.308L131.714 130.446C131.738 130.536 131.725 130.631 131.679 130.711C131.633 130.791 131.557 130.85 131.468 130.874L129.819 131.321C129.769 131.335 129.716 131.337 129.665 131.328C129.614 131.319 129.566 131.298 129.524 131.267Z" fill="#3F3D56"/>
<path d="M127.983 125.583C129.034 125.583 129.886 124.731 129.886 123.68C129.886 122.629 129.034 121.778 127.983 121.778C126.932 121.778 126.08 122.629 126.08 123.68C126.08 124.731 126.932 125.583 127.983 125.583Z" fill="#CAC1C1"/>
<path d="M129.329 125.185C129.25 125.271 129.147 125.333 129.034 125.362C128.921 125.392 128.802 125.388 128.69 125.353C128.579 125.317 128.48 125.25 128.406 125.16C128.331 125.07 128.284 124.96 128.269 124.844C128.265 124.804 128.266 124.764 128.27 124.724C128.294 124.495 128.426 124.287 128.394 124.045C128.387 123.985 128.365 123.928 128.329 123.879C128.046 123.5 127.382 124.048 127.115 123.706C126.952 123.495 127.144 123.164 127.018 122.929C126.853 122.619 126.362 122.772 126.054 122.602C125.711 122.413 125.732 121.888 125.957 121.568C126.104 121.379 126.291 121.225 126.504 121.116C126.717 121.008 126.952 120.947 127.191 120.94C127.669 120.929 128.145 121.021 128.584 121.212C129.103 121.381 129.561 121.698 129.901 122.125C130.077 122.405 130.189 122.72 130.228 123.049C130.267 123.377 130.232 123.71 130.127 124.023C130.012 124.407 129.619 124.877 129.329 125.185Z" fill="#2F2E41"/>
<path d="M129.882 126.854C129.849 126.83 129.815 126.807 129.781 126.784C129.598 126.662 129.4 126.565 129.193 126.495V125.995H127.721V126.459C127.233 126.594 126.795 126.869 126.462 127.25C126.13 127.632 125.916 128.102 125.849 128.604L124.847 136.045C124.84 136.091 124.843 136.139 124.856 136.184C124.868 136.229 124.89 136.271 124.919 136.308C124.947 136.345 124.983 136.375 125.024 136.397C125.064 136.42 125.109 136.433 125.155 136.438C125.858 136.529 126.534 136.76 127.145 137.119C127.588 137.365 128.087 137.492 128.594 137.489C128.996 137.487 129.395 137.416 129.773 137.279C129.837 137.255 129.893 137.213 129.933 137.158C129.973 137.103 129.996 137.037 129.999 136.969C130.035 136.168 130.246 132.046 130.861 129.532C130.98 129.039 130.951 128.521 130.777 128.045C130.603 127.568 130.291 127.154 129.882 126.854Z" fill="#3F3D56"/>
<path d="M140.737 111.833H110.237L106.54 97.0455H144.434L140.737 111.833Z" fill="#3F3D56"/>
<path d="M139.697 137.123H111.277V151.934H139.697V137.123Z" fill="white"/>
<path d="M139.928 152.165H111.046V136.892H139.928V152.165ZM111.508 151.703H139.466V137.354H111.508V151.703Z" fill="#3F3D56"/>
<path d="M131.313 113.577H119.661L118.324 111.476H132.65L131.313 113.577Z" fill="#3F3D56"/>
<path d="M110.93 111.833H110.468V134.477H110.93V111.833Z" fill="#3F3D56"/>
<path d="M140.506 111.833H140.044V134.477H140.506V111.833Z" fill="#3F3D56"/>
<path d="M130.119 96.7951L129.837 96.4291C143.187 86.1339 159.101 68.4966 159.101 42.9377C159.112 33.986 156.48 25.2305 151.534 17.7691C146.588 10.3077 139.549 4.47264 131.3 0.995756L131.481 0.57019C139.813 4.08236 146.923 9.9766 151.919 17.5137C156.915 25.0508 159.574 33.8952 159.564 42.9377C159.564 68.6843 143.552 86.4365 130.119 96.7951Z" fill="#3F3D56"/>
<path d="M115.331 96.7952L115.049 96.4292C128.399 86.134 144.314 68.4967 144.314 42.9377C144.317 34.0462 141.716 25.3484 136.832 17.9187C131.947 10.489 124.993 4.65281 116.829 1.13106L117.012 0.706848C125.259 4.26433 132.284 10.1597 137.218 17.6649C142.152 25.17 144.779 33.956 144.776 42.9377C144.776 68.6844 128.764 86.4367 115.331 96.7952Z" fill="#3F3D56"/>
<path d="M134.256 96.7951C120.824 86.4366 104.812 68.6844 104.812 42.9377C104.808 33.9559 107.436 25.1698 112.37 17.6647C117.304 10.1595 124.329 4.26414 132.576 0.706726L132.759 1.13094C124.595 4.65263 117.641 10.4888 112.756 17.9186C107.872 25.3483 105.271 34.0462 105.274 42.9377C105.274 68.4966 121.188 86.1339 134.539 96.4291L134.256 96.7951Z" fill="#3F3D56"/>
<path d="M119.469 96.7951C106.036 86.4366 90.0241 68.6845 90.0241 42.9377C90.009 33.8596 92.6871 24.9809 97.7194 17.4252C102.752 9.86955 109.912 3.97636 118.295 0.491333L118.473 0.917801C110.175 4.36779 103.086 10.2018 98.1042 17.6815C93.1224 25.1613 90.4713 33.9508 90.4862 42.9377C90.4862 68.4968 106.4 86.134 119.751 96.4291L119.469 96.7951Z" fill="#3F3D56"/>
<path d="M125.025 0H124.563V97.0456H125.025V0Z" fill="#3F3D56"/>
<path d="M119.587 133.765L111.113 142.239L111.44 142.566L119.914 134.092L119.587 133.765Z" fill="#3F3D56"/>
<path d="M123.707 133.624L111.11 146.873L111.445 147.191L124.042 133.943L123.707 133.624Z" fill="#3F3D56"/>
<path d="M142.354 133.784H107.695V137.943H142.354V133.784Z" fill="white"/>
<path d="M142.586 138.174H107.464V133.553H142.586V138.174ZM107.926 137.712H142.123V134.015H107.926V137.712Z" fill="#3F3D56"/>
<path d="M118.905 135.719C118.998 135.712 119.088 135.686 119.169 135.64C119.25 135.595 119.321 135.533 119.375 135.458C119.43 135.383 119.467 135.297 119.485 135.205C119.502 135.114 119.5 135.02 119.477 134.93L121.366 133.693L120.289 133.228L118.66 134.474C118.512 134.522 118.386 134.623 118.306 134.758C118.227 134.892 118.2 135.051 118.23 135.205C118.26 135.358 118.345 135.495 118.47 135.59C118.594 135.685 118.749 135.731 118.905 135.719Z" fill="#9F616A"/>
<path d="M120.722 134.827L120.698 134.81C120.249 134.48 119.75 134.138 119.267 133.807L119.238 133.787L119.261 133.76C120.291 132.555 121.322 131.297 122.319 130.079L122.317 130.075L122.327 130.07L122.331 130.065L122.333 130.067L122.339 130.064L122.312 130.066L122.004 127.656C121.852 127.405 121.775 127.116 121.78 126.823C121.786 126.53 121.875 126.244 122.038 126C122.224 125.736 122.501 125.551 122.816 125.479C123.131 125.407 123.461 125.454 123.744 125.61C123.883 125.704 124 125.828 124.085 125.972C124.17 126.117 124.221 126.279 124.235 126.446C124.255 126.596 124.241 126.747 124.195 126.89C124.149 127.033 124.071 127.164 123.968 127.273C124.074 128.443 124.121 129.617 124.108 130.792L124.108 130.803L124.101 130.812C123.038 132.163 121.871 133.506 120.741 134.805L120.722 134.827Z" fill="#CBCBCB"/>
<path d="M121.088 127.418C121.098 127.46 121.104 127.503 121.107 127.545L124.434 129.465L125.243 129L126.106 130.128L124.375 131.362L120.579 128.367C120.424 128.424 120.255 128.433 120.095 128.392C119.935 128.351 119.792 128.262 119.683 128.138C119.575 128.013 119.507 127.859 119.489 127.695C119.47 127.531 119.502 127.365 119.58 127.219C119.658 127.074 119.779 126.956 119.926 126.88C120.073 126.805 120.239 126.776 120.403 126.798C120.567 126.82 120.72 126.891 120.842 127.001C120.965 127.112 121.05 127.258 121.088 127.418Z" fill="#CAC1C1"/>
<path d="M124.553 129.302C124.548 129.25 124.554 129.198 124.571 129.149C124.589 129.1 124.617 129.056 124.653 129.019L126.347 127.325C126.515 127.157 126.739 127.057 126.976 127.045C127.213 127.032 127.446 127.108 127.631 127.257C127.815 127.407 127.938 127.619 127.975 127.853C128.012 128.088 127.961 128.328 127.832 128.527L126.626 130.385C126.576 130.463 126.496 130.517 126.406 130.536C126.316 130.556 126.221 130.538 126.144 130.488L124.71 129.558C124.667 129.53 124.63 129.492 124.603 129.448C124.576 129.403 124.559 129.354 124.553 129.302Z" fill="#3F3D56"/>
<path d="M101.51 112.81C101.45 112.81 101.393 112.788 101.349 112.747C101.306 112.706 101.279 112.651 101.275 112.592C101.121 110.501 100.184 108.546 98.6503 107.117C97.1166 105.688 95.1 104.891 93.004 104.886C92.7531 104.886 92.4896 104.899 92.2207 104.924C92.1757 104.928 92.1305 104.919 92.0904 104.898C92.0503 104.877 92.017 104.846 91.9946 104.806C91.0318 103.121 89.594 101.757 87.8606 100.883C86.1272 100.01 84.1751 99.6667 82.2477 99.8959C80.3204 100.125 78.5032 100.917 77.0231 102.172C75.5429 103.428 74.4652 105.091 73.9245 106.956C73.9102 107.005 73.8797 107.049 73.8379 107.08C73.796 107.111 73.745 107.127 73.6931 107.125L73.6306 107.123C73.598 107.122 73.5655 107.121 73.5327 107.121C71.9429 107.126 70.4025 107.675 69.1673 108.675C67.932 109.676 67.0761 111.069 66.7415 112.624C66.7304 112.676 66.7014 112.724 66.6595 112.758C66.6176 112.792 66.5652 112.81 66.5112 112.81H50.7473C50.7163 112.81 50.6856 112.804 50.657 112.793C50.6284 112.781 50.6023 112.764 50.5804 112.742C50.5585 112.72 50.5411 112.694 50.5292 112.665C50.5173 112.637 50.5112 112.606 50.5112 112.575C50.5112 112.544 50.5173 112.513 50.5292 112.485C50.5411 112.456 50.5585 112.43 50.5804 112.408C50.6023 112.387 50.6284 112.369 50.657 112.357C50.6856 112.346 50.7163 112.34 50.7473 112.34H66.3229C66.715 110.723 67.6373 109.284 68.9427 108.253C70.248 107.222 71.8611 106.658 73.5246 106.651C74.1168 104.735 75.2525 103.033 76.7939 101.75C78.3352 100.468 80.2158 99.6607 82.2071 99.4268C84.1985 99.1929 86.2149 99.5424 88.0114 100.433C89.8079 101.323 91.3072 102.716 92.3271 104.442C92.5586 104.424 92.7857 104.415 93.004 104.415C95.219 104.421 97.3501 105.263 98.9708 106.773C100.591 108.283 101.582 110.349 101.745 112.559C101.747 112.589 101.743 112.62 101.733 112.65C101.723 112.679 101.708 112.706 101.688 112.729C101.667 112.753 101.643 112.772 101.615 112.786C101.587 112.799 101.557 112.808 101.526 112.81C101.521 112.81 101.515 112.81 101.51 112.81Z" fill="#CBCBCB"/>
<path d="M98.71 115.827H60.1204C60.0895 115.827 60.0588 115.821 60.0302 115.81C60.0015 115.798 59.9755 115.781 59.9536 115.759C59.9317 115.737 59.9143 115.711 59.9024 115.682C59.8905 115.654 59.8844 115.623 59.8844 115.592C59.8844 115.561 59.8905 115.53 59.9024 115.502C59.9143 115.473 59.9317 115.447 59.9536 115.425C59.9755 115.404 60.0015 115.386 60.0302 115.374C60.0588 115.363 60.0895 115.357 60.1204 115.357H98.71C98.7724 115.357 98.8323 115.382 98.8764 115.426C98.9206 115.47 98.9453 115.53 98.9453 115.592C98.9453 115.654 98.9206 115.714 98.8764 115.758C98.8323 115.803 98.7724 115.827 98.71 115.827Z" fill="#CBCBCB"/>
<path d="M69.5325 119.239H56.5909C56.5599 119.239 56.5293 119.233 56.5006 119.222C56.472 119.21 56.446 119.192 56.424 119.171C56.4021 119.149 56.3847 119.123 56.3728 119.094C56.361 119.066 56.3549 119.035 56.3549 119.004C56.3549 118.973 56.361 118.942 56.3728 118.914C56.3847 118.885 56.4021 118.859 56.424 118.837C56.446 118.815 56.472 118.798 56.5006 118.786C56.5293 118.775 56.5599 118.769 56.5909 118.769H69.5325C69.5635 118.769 69.5942 118.775 69.6228 118.786C69.6514 118.798 69.6775 118.815 69.6994 118.837C69.7213 118.859 69.7387 118.885 69.7506 118.914C69.7625 118.942 69.7686 118.973 69.7686 119.004C69.7686 119.035 69.7625 119.066 69.7506 119.094C69.7387 119.123 69.7213 119.149 69.6994 119.171C69.6775 119.192 69.6514 119.21 69.6228 119.222C69.5942 119.233 69.5635 119.239 69.5325 119.239Z" fill="#CBCBCB"/>
</g>
<defs>
<clipPath id="clip0_212_1510">
<rect width="200" height="152.165" fill="white"/>
</clipPath>
</defs>
</svg>
