<svg width="300" height="179" viewBox="0 0 300 179" fill="none" xmlns="http://www.w3.org/2000/svg">
<g clip-path="url(#clip0_212_1612)">
<path d="M32.5885 125.79C31.2928 125.93 29.8782 126.139 28.3734 126.446C21.9976 127.746 21.8623 132.076 21.9197 133.068L21.8746 133.04C21.235 134.069 20.8332 135.11 20.5871 136.09L20.296 122.818C20.4846 122.424 20.6569 121.977 20.8004 121.522C21.276 122.994 22.0591 124.38 22.7357 124.29C23.6131 124.171 23.9944 121.588 23.8304 119.755C24.9457 121.19 26.8236 122.727 27.5329 122.252C28.0987 121.875 27.7625 120.317 27.1475 118.898C28.4349 119.673 29.8618 120.181 30.3046 119.689C30.9074 119.017 29.46 116.725 28.1274 115.446C29.911 115.614 32.1825 115.327 32.3343 114.515C32.4573 113.846 31.1042 113.002 29.6568 112.456C31.1083 112.075 32.4696 111.407 32.4245 110.747C32.3712 109.964 30.3538 109.435 28.6113 109.357C29.9233 108.332 31.1288 106.909 30.7598 106.269C30.4195 105.679 28.845 105.908 27.3894 106.429C28.2504 105.199 28.8573 103.809 28.3939 103.333C27.8199 102.743 25.7821 103.764 24.388 104.892C24.6587 103.133 24.5233 100.914 23.732 100.713C23.0719 100.545 22.137 101.837 21.4974 103.243C21.2145 101.767 20.6405 100.365 19.9803 100.365C19.0373 100.365 18.2746 103.206 18.2746 105.06C18.2746 105.166 18.2746 105.265 18.2828 105.359C18.1885 105.248 18.0778 105.133 17.9548 105.015C16.6263 103.723 14.0555 102.292 13.3954 102.969C12.9362 103.444 13.5389 104.83 14.3999 106.064C12.9444 105.543 11.3658 105.314 11.0296 105.904C10.5744 106.696 12.522 108.676 14.1047 109.636C14.0104 109.623 13.9079 109.615 13.8013 109.607C11.9521 109.48 9.06556 110.05 8.99995 110.989C8.95485 111.649 10.312 112.317 11.7676 112.698C10.3202 113.244 8.97125 114.088 9.09016 114.757C9.23776 115.569 11.5093 115.856 13.297 115.687C11.9644 116.967 10.517 119.259 11.1198 119.931C11.5626 120.423 12.9895 119.915 14.2769 119.14C13.6578 120.558 13.3257 122.117 13.8915 122.494C14.6377 122.994 16.6919 121.251 17.7703 119.755C17.6596 121.588 18.0983 124.105 18.9676 124.204C19.3325 124.245 19.7179 123.855 20.0664 123.261L19.0824 137.525C18.8528 139.186 20.3247 140.272 20.4559 140.953L20.6692 150.613C20.4272 149.924 20.1074 149.219 19.6687 148.522L19.6236 148.551C19.681 147.558 19.5457 143.229 13.1699 141.929C11.6651 141.621 10.2505 141.412 8.95485 141.273C7.42547 141.109 6.82684 143.204 8.20861 143.88C10.2095 144.86 12.0915 146.095 13.0756 147.554C15.5849 151.29 19.0496 149.133 19.5457 148.797C20.0951 149.715 20.4559 150.638 20.6856 151.515L20.8004 156.644C20.7717 156.767 20.7553 156.833 20.7512 156.837L20.8045 156.854L21.0792 169.269L23.6131 169.248L22.707 156.558C22.8587 155.874 23.3261 153.541 22.707 151.121L21.8008 141.15L20.6199 137.23C20.7922 136.016 21.1899 134.655 22.0017 133.306C22.4937 133.642 25.9625 135.803 28.4719 132.064C29.4518 130.604 31.3379 129.37 33.3388 128.39C34.7206 127.713 34.126 125.618 32.5926 125.782L32.5885 125.79ZM21.0136 155.164L20.9644 152.991C21.0587 153.811 21.0546 154.553 21.0136 155.164Z" fill="#F2F2F2"/>
<path d="M0 169.868C0 170.138 0.217311 170.355 0.487925 170.355H299.512C299.783 170.355 300 170.138 300 169.868C300 169.597 299.783 169.38 299.512 169.38H0.487925C0.217311 169.38 0 169.597 0 169.868Z" fill="#3F3D56"/>
<path d="M181.467 170.298C193.695 170.298 203.608 160.385 203.608 148.157C203.608 135.929 193.695 126.016 181.467 126.016C169.239 126.016 159.326 135.929 159.326 148.157C159.326 160.385 169.239 170.298 181.467 170.298Z" fill="#3F3D56"/>
<path d="M181.467 162.918C189.619 162.918 196.228 156.309 196.228 148.157C196.228 140.005 189.619 133.396 181.467 133.396C173.315 133.396 166.706 140.005 166.706 148.157C166.706 156.309 173.315 162.918 181.467 162.918Z" fill="white"/>
<path d="M181.467 156.562C186.109 156.562 189.873 152.799 189.873 148.157C189.873 143.515 186.109 139.752 181.467 139.752C176.825 139.752 173.062 143.515 173.062 148.157C173.062 152.799 176.825 156.562 181.467 156.562Z" fill="#3F3D56"/>
<path d="M53.5405 170.298C65.7688 170.298 75.6817 160.385 75.6817 148.157C75.6817 135.929 65.7688 126.016 53.5405 126.016C41.3123 126.016 31.3994 135.929 31.3994 148.157C31.3994 160.385 41.3123 170.298 53.5405 170.298Z" fill="#3F3D56"/>
<path d="M53.5405 162.918C61.6927 162.918 68.3013 156.309 68.3013 148.157C68.3013 140.005 61.6927 133.396 53.5405 133.396C45.3884 133.396 38.7798 140.005 38.7798 148.157C38.7798 156.309 45.3884 162.918 53.5405 162.918Z" fill="white"/>
<path d="M211.755 137.628C208.873 130.358 198.794 108.147 180.844 100.795C180.704 100.738 180.561 100.701 180.413 100.681L122.842 92.4351C121.895 92.2998 121.009 92.9476 120.858 93.8947L119.849 100.127C119.779 100.553 119.87 100.992 120.103 101.357C123.027 105.892 141.765 136.68 111.759 136.68C81.7541 136.68 73.484 115.208 72.1719 111.415C72.0489 111.058 72.0448 110.673 72.1555 110.312L81.2497 81.508C81.4097 80.9955 81.3235 80.4707 81.0611 80.0524L85.0588 72.627L92.3818 76.7723L96.1745 76.8174L109.119 83.5827L111.755 79.2775L85.0588 65.96C85.0588 65.96 85.1039 62.8767 76.4935 60.4165L62.9628 54.2662L61.3227 56.3163L65.4229 59.5965L65.833 62.0566L68.7031 62.8767L74.4434 73.9472L72.8033 77.1208L74.796 78.0925L74.2261 77.9613C73.4019 77.7727 72.5614 78.1991 72.2252 78.9741L63.1801 99.7047C63.0407 100.02 62.8111 100.291 62.52 100.48L59.2972 102.558C58.9979 102.751 58.7601 103.034 58.6248 103.366L54.9428 112.292C54.828 112.571 54.7952 112.862 54.8239 113.145C50.2358 114.014 36.7502 117.77 29.3411 132.584L37.9516 139.555C37.9516 139.555 51.4494 130.821 73.7546 139.915C77.6334 145.951 83.2875 150.957 91.4552 151.429C112.985 152.675 148.657 153.905 152.757 148.985C155.759 145.381 157.846 143.134 158.752 142.187C159.072 141.855 159.506 141.662 159.966 141.646L210.173 140.043C211.39 140.006 212.198 138.767 211.751 137.636L211.755 137.628Z" fill="#FF7686"/>
<path d="M73.2215 73.1231C76.8447 73.1231 79.7819 70.1859 79.7819 66.5628C79.7819 62.9396 76.8447 60.0024 73.2215 60.0024C69.5983 60.0024 66.6612 62.9396 66.6612 66.5628C66.6612 70.1859 69.5983 73.1231 73.2215 73.1231Z" fill="#3F3D56"/>
<path d="M178.281 100.824C178.203 100.824 178.125 100.824 178.048 100.82L123.195 98.6962C120.768 98.6019 118.689 97.0561 117.897 94.76L117.147 92.5745C116.536 90.7951 116.803 88.8844 117.877 87.3386C118.955 85.7928 120.653 84.8826 122.535 84.8374L179.208 83.5336C180.963 83.4926 182.652 84.2429 183.796 85.596C184.94 86.9491 185.407 88.7203 185.075 90.4629L184.005 96.072C183.476 98.8561 181.086 100.82 178.277 100.82L178.281 100.824Z" fill="#3F3D56"/>
<path d="M53.5405 156.562C58.1827 156.562 61.9459 152.799 61.9459 148.157C61.9459 143.515 58.1827 139.752 53.5405 139.752C48.8983 139.752 45.1351 143.515 45.1351 148.157C45.1351 152.799 48.8983 156.562 53.5405 156.562Z" fill="#3F3D56"/>
<path d="M200.32 124.228C199.008 124.228 197.757 123.527 197.089 122.317L192.935 114.798C192.275 113.604 192.316 112.206 193.038 111.054C193.759 109.898 195.006 109.25 196.359 109.324L203.899 109.709C205.302 109.783 206.564 110.665 207.114 111.96L209.316 117.168C209.717 118.123 209.709 119.164 209.287 120.112C208.865 121.055 208.094 121.764 207.118 122.1L201.533 124.027C201.136 124.167 200.726 124.232 200.324 124.232L200.32 124.228Z" fill="#3F3D56"/>
<path d="M104.969 174.206C104.908 174.206 104.842 174.206 104.781 174.193L103.108 174.009C102.563 173.947 102.087 173.64 101.808 173.164C101.529 172.689 101.492 172.127 101.706 171.618L110.414 150.937C110.652 150.371 111.181 149.969 111.792 149.891C112.387 149.818 112.965 150.051 113.346 150.515C113.723 150.978 113.838 151.593 113.645 152.159L106.614 173.025C106.376 173.73 105.703 174.202 104.973 174.202L104.969 174.206Z" fill="#3F3D56"/>
<path d="M150.183 29.8823C150.183 29.8823 146.997 23.5106 147.632 17.7785L137.029 23.2728L137.439 33.7037L150.183 29.8823Z" fill="#A0616A"/>
<path d="M143.602 26.2167C148.885 26.2167 153.168 21.934 153.168 16.6509C153.168 11.3679 148.885 7.08514 143.602 7.08514C138.319 7.08514 134.036 11.3679 134.036 16.6509C134.036 21.934 138.319 26.2167 143.602 26.2167Z" fill="#A0616A"/>
<path d="M153.373 166.85H147.534L144.758 144.335H153.373V166.85Z" fill="#A0616A"/>
<path d="M133.376 166.714C133.195 167.022 133.097 168.01 133.097 168.363C133.097 169.457 133.983 170.343 135.077 170.343H153.151C153.897 170.343 154.504 169.736 154.504 168.99V168.236C154.504 168.236 155.398 165.972 153.557 163.188C153.557 163.188 151.269 165.369 147.85 161.954L146.841 160.129L139.542 165.468L135.496 165.964C134.61 166.075 133.827 165.948 133.372 166.714H133.376Z" fill="#2F2E41"/>
<path d="M136.164 29.8823L150.182 27.9716L161.015 33.0682L161.651 72.5696C161.651 72.5696 135.008 75.7554 130.809 71.6142C126.61 67.473 129.796 34.3433 129.796 34.3433L136.168 29.8823H136.164Z" fill="#E6E6E6"/>
<path d="M141.207 19.0865H138.636C138.636 19.0865 136.406 16.3393 136.705 18.0122C137.004 19.6851 135.803 21.4851 135.803 21.4851L134.003 20.8865C134.003 20.8865 130.403 5.74438 141.207 4.91204C152.011 4.0797 154.414 12.4851 154.414 12.4851C154.414 12.4851 153.815 16.6879 152.614 15.4865C151.412 14.2851 144.811 13.6865 144.811 13.6865L141.211 19.0906L141.207 19.0865Z" fill="#2F2E41"/>
<path d="M134.405 161.79L128.792 163.373L120.001 142.466L128.291 140.125L134.405 161.79Z" fill="#A0616A"/>
<path d="M115.126 167.096C115.035 167.44 115.212 168.416 115.306 168.76C115.601 169.814 116.696 170.425 117.75 170.13L135.143 165.218C135.86 165.017 136.279 164.267 136.078 163.549L135.873 162.823C135.873 162.823 136.119 160.404 133.589 158.223C133.589 158.223 131.982 160.945 127.763 158.584L126.295 157.099L120.722 164.217L116.967 165.796C116.147 166.14 115.355 166.235 115.126 167.096Z" fill="#2F2E41"/>
<path d="M159.736 68.7482L161.647 74.5295V94.395L155.911 154.357H144.709L143.446 111.554L144.442 90.4137L123.076 122.74L132.466 145.828L122.129 152.721C122.129 152.721 106.671 117.496 108.984 114.08C111.296 110.669 132.01 70.376 132.01 70.376C132.01 70.376 159.728 69.3879 159.728 68.7523L159.736 68.7482Z" fill="#2F2E41"/>
<path d="M165.472 45.8116L168.551 50.8549C168.551 50.8549 172.906 67.9692 168.551 68.0389C164.197 68.1086 155.406 59.3177 155.406 59.3177L156.554 54.7296L159.74 56.0048L159.105 45.8116H165.476H165.472Z" fill="#A0616A"/>
<path d="M155.915 32.9902C155.915 32.9902 166.108 31.1943 167.063 37.8654C168.018 44.5364 168.551 50.859 168.551 50.859L157.505 51.7733L155.915 32.9902Z" fill="#E6E6E6"/>
<path d="M158.129 58.7593C159.051 57.4645 157.701 54.9207 155.113 53.0775C152.525 51.2344 149.68 50.7899 148.758 52.0847C147.835 53.3795 149.186 55.9233 151.773 57.7665C154.361 59.6096 157.207 60.0541 158.129 58.7593Z" fill="#A0616A"/>
<path d="M242.109 125.79C240.813 125.93 239.399 126.139 237.894 126.446C231.518 127.746 231.383 132.076 231.44 133.068L231.395 133.04C230.755 134.069 230.354 135.11 230.108 136.09L229.816 122.818C230.005 122.424 230.177 121.977 230.321 121.522C230.796 122.994 231.58 124.38 232.256 124.29C233.134 124.171 233.515 121.588 233.351 119.755C234.466 121.19 236.344 122.727 237.053 122.252C237.619 121.875 237.283 120.317 236.668 118.898C237.955 119.673 239.382 120.181 239.825 119.689C240.428 119.017 238.98 116.725 237.648 115.446C239.431 115.614 241.703 115.327 241.855 114.515C241.978 113.846 240.625 113.002 239.177 112.456C240.629 112.075 241.99 111.407 241.945 110.747C241.892 109.964 239.874 109.435 238.132 109.357C239.444 108.332 240.649 106.909 240.28 106.269C239.94 105.679 238.365 105.908 236.91 106.429C237.771 105.199 238.378 103.809 237.914 103.333C237.34 102.743 235.303 103.764 233.909 104.892C234.179 103.133 234.044 100.914 233.252 100.713C232.592 100.545 231.657 101.837 231.018 103.243C230.735 101.767 230.161 100.365 229.501 100.365C228.558 100.365 227.795 103.206 227.795 105.06C227.795 105.166 227.795 105.265 227.803 105.359C227.709 105.248 227.598 105.133 227.475 105.015C226.147 103.723 223.576 102.292 222.916 102.969C222.457 103.444 223.059 104.83 223.92 106.064C222.465 105.543 220.886 105.314 220.55 105.904C220.095 106.696 222.043 108.676 223.625 109.636C223.531 109.623 223.428 109.615 223.322 109.607C221.473 109.48 218.586 110.05 218.52 110.989C218.475 111.649 219.832 112.317 221.288 112.698C219.841 113.244 218.492 114.088 218.611 114.757C218.758 115.569 221.03 115.856 222.817 115.687C221.485 116.967 220.037 119.259 220.64 119.931C221.083 120.423 222.51 119.915 223.797 119.14C223.178 120.558 222.846 122.117 223.412 122.494C224.158 122.994 226.212 121.251 227.291 119.755C227.18 121.588 227.619 124.105 228.488 124.204C228.853 124.245 229.238 123.855 229.587 123.261L228.603 137.525C228.373 139.186 229.845 140.272 229.976 140.953L230.19 150.613C229.948 149.924 229.628 149.219 229.189 148.522L229.144 148.551C229.201 147.558 229.066 143.229 222.69 141.929C221.186 141.621 219.771 141.412 218.475 141.273C216.946 141.109 216.347 143.204 217.729 143.88C219.73 144.86 221.612 146.095 222.596 147.554C225.105 151.29 228.57 149.133 229.066 148.797C229.616 149.715 229.976 150.638 230.206 151.515L230.321 156.644C230.292 156.767 230.276 156.833 230.272 156.837L230.325 156.854L230.6 169.269L233.134 169.248L232.227 156.558C232.379 155.874 232.847 153.541 232.227 151.121L231.321 141.15L230.14 137.23C230.313 136.016 230.71 134.655 231.522 133.306C232.014 133.642 235.483 135.803 237.992 132.064C238.972 130.604 240.858 129.37 242.859 128.39C244.241 127.713 243.647 125.618 242.113 125.782L242.109 125.79ZM230.534 155.164L230.485 152.991C230.579 153.811 230.575 154.553 230.534 155.164Z" fill="#F2F2F2"/>
<path d="M212.6 167.727L217.008 166.776L215.429 149.334L208.93 150.736L212.6 167.727Z" fill="#A0616A"/>
<path d="M227.672 164.369C227.861 164.57 228.095 165.3 228.152 165.571C228.332 166.395 227.808 167.211 226.979 167.387L213.338 170.335C212.776 170.458 212.219 170.097 212.096 169.535L211.973 168.966C211.973 168.966 210.927 167.403 211.862 165.001C211.862 165.001 213.945 166.276 215.966 163.135L216.43 161.593L222.809 164.431L225.942 164.148C226.627 164.086 227.201 163.861 227.668 164.369H227.672Z" fill="#2F2E41"/>
<path d="M220.481 166.395L224.154 163.787L215.843 148.37L210.419 152.216L220.481 166.395Z" fill="#A0616A"/>
<path d="M233.015 157.374C233.265 157.485 233.769 158.063 233.925 158.289C234.413 158.977 234.253 159.933 233.564 160.421L222.182 168.498C221.711 168.83 221.063 168.719 220.727 168.252L220.39 167.776C220.39 167.776 218.816 166.751 218.73 164.172C218.73 164.172 221.145 164.525 221.772 160.843L221.592 159.244L228.574 159.342L231.346 157.85C231.953 157.522 232.392 157.091 233.019 157.374H233.015Z" fill="#2F2E41"/>
<path d="M167.535 80.1468C167.535 80.1468 160.683 89.4625 174.386 99.9385L202.37 90.9959L192.374 70.1505L183.521 65.2958L167.531 80.1427L167.535 80.1468Z" fill="#2F2E41"/>
<path d="M202.374 91L213.223 112.128L220.079 156.107L211.513 156.677L202.944 114.986L187.81 92.4269L198.376 87.5722" fill="#2F2E41"/>
<path d="M174.39 93.3043V99.9425L193.809 121.268C193.809 121.268 193.809 137.259 201.234 144.684L209.8 157.821L217.225 153.823L206.376 115.56L186.957 90.4301L174.394 93.3043H174.39Z" fill="#2F2E41"/>
<path d="M188.187 27.5001L184.53 41.4449L170.585 38.7019C170.585 38.7019 180.315 28.6687 178.946 24.0969L188.192 27.5001H188.187Z" fill="#A0616A"/>
<path d="M177.531 29.6035L186.096 33.6012C186.096 33.6012 190.504 36.2951 190.586 38.0909C190.668 39.8868 190.094 48.4522 190.094 48.4522C190.094 48.4522 193.522 51.8799 191.238 58.7314L192.382 70.1546L166.682 83.8616L168.966 59.8753L167.822 37.603L177.531 29.6076V29.6035Z" fill="#3F3D56"/>
<path d="M169.843 94.6001C170.848 96.9003 172.848 98.2492 174.312 97.6096C175.776 96.97 176.149 94.5878 175.149 92.2875C174.759 91.3609 174.156 90.5449 173.386 89.9012L169.011 80.2042L164.504 82.3527L169.294 91.6848C169.24 92.6853 169.429 93.6857 169.843 94.6001Z" fill="#A0616A"/>
<path d="M174.39 39.0299C174.39 39.0299 168.109 35.0322 165.825 39.5998C163.541 44.1675 158.399 67.5838 158.399 67.5838L165.825 89.8561L172.676 87.0023L166.678 63.0325L174.386 39.0299H174.39Z" fill="#3F3D56"/>
<path d="M206.589 91.0041C208.369 92.7754 210.726 93.292 211.854 92.1562C212.981 91.0205 212.448 88.6711 210.669 86.8998C209.968 86.1823 209.102 85.6451 208.151 85.3294L200.513 77.9244L197.113 81.5818L205.002 88.4907C205.322 89.4419 205.867 90.303 206.589 91V91.0041Z" fill="#A0616A"/>
<path d="M190.344 37.6645C190.344 37.6645 179.392 37.2175 178.95 42.3059C178.511 47.3943 185.998 70.1012 185.998 70.1012L201.107 88.0724L206.425 82.8939L192.021 62.8192L190.348 37.6645H190.344Z" fill="#3F3D56"/>
<path d="M158.276 78.8962L149.129 51.1255C141.732 44.6103 133.708 60.3018 112.169 51.4043L118.943 82.816C135.229 74.0129 149.244 70.5646 158.276 78.8962Z" fill="white"/>
<path d="M118.943 83.636C118.886 83.636 118.824 83.6237 118.771 83.5991C118.652 83.5458 118.57 83.4392 118.541 83.3121L111.768 51.9004C111.735 51.7528 111.788 51.597 111.907 51.4986C112.026 51.4002 112.186 51.3756 112.325 51.433C124.56 56.4844 132.457 53.479 138.226 51.2813C142.609 49.6125 146.07 48.2922 149.399 51.2239C149.453 51.2731 149.494 51.3346 149.518 51.4043L158.666 79.175C158.723 79.3513 158.653 79.5481 158.498 79.6465C158.342 79.749 158.133 79.7285 157.997 79.6014C150.059 72.2784 137.71 73.5413 119.14 83.5827C119.078 83.6155 119.013 83.6319 118.943 83.6319V83.636ZM112.731 52.4826L119.226 82.6068C137.045 73.0657 149.252 71.5937 157.423 78.0433L148.768 51.7733C145.836 49.264 142.757 50.4366 138.513 52.0521C132.732 54.2539 124.855 57.2553 112.731 52.4867V52.4826Z" fill="#3F3D56"/>
<path d="M126.356 37.8941L120.567 39.0914C120.567 39.0914 105.092 47.6075 108.02 50.8344C110.943 54.0612 123.371 54.4753 123.371 54.4753L125.938 50.5022L122.83 49.0467L130.711 42.5478L126.356 37.8941Z" fill="#A0616A"/>
<path d="M142.249 36.1105C142.249 36.1105 136.594 27.4386 131.071 31.301C125.548 35.1634 120.571 39.0914 120.571 39.0914L127.451 47.7797L142.253 36.1105H142.249Z" fill="#E6E6E6"/>
<path d="M133.193 54.3852C133.509 52.8271 131.24 51.0532 128.126 50.423C125.012 49.7929 122.232 50.5451 121.917 52.1032C121.601 53.6613 123.87 55.4352 126.984 56.0654C130.098 56.6955 132.878 55.9432 133.193 54.3852Z" fill="#A0616A"/>
<path d="M240.12 173.004C242.032 173.004 243.581 171.455 243.581 169.544C243.581 167.632 242.032 166.083 240.12 166.083C238.209 166.083 236.66 167.632 236.66 169.544C236.66 171.455 238.209 173.004 240.12 173.004Z" fill="#3F3D56"/>
<path d="M244.733 178.371C246.644 178.371 248.194 176.822 248.194 174.911C248.194 173 246.644 171.45 244.733 171.45C242.822 171.45 241.273 173 241.273 174.911C241.273 176.822 242.822 178.371 244.733 178.371Z" fill="#3F3D56"/>
<path d="M279.331 178.371C281.242 178.371 282.792 176.822 282.792 174.911C282.792 173 281.242 171.45 279.331 171.45C277.42 171.45 275.87 173 275.87 174.911C275.87 176.822 277.42 178.371 279.331 178.371Z" fill="#3F3D56"/>
<path d="M249.801 123.125V85.5468C249.801 81.34 253.319 80.2985 257.526 80.2985C259.589 80.2985 260.589 80.0607 262.036 81.5286C263.484 82.9965 265.091 83.6074 265.058 85.6698L264.451 122.543L249.797 123.121L249.801 123.125ZM257.936 82.7628C254.18 82.7628 250.621 81.7951 250.621 85.5509V122.276L263.648 121.76L264.242 85.6616C264.271 83.8206 261.278 84.0748 259.99 82.7628C258.699 81.4507 259.781 82.7628 257.94 82.7628H257.936Z" fill="#3F3D56"/>
<path d="M239.502 122.67L238.977 163.725C238.969 164.254 239.096 164.775 239.342 165.242L243.22 172.57C243.79 173.648 244.93 174.3 246.148 174.247L280.204 172.746C281.947 172.668 283.296 171.192 283.218 169.449L281.082 122.572C281.004 120.886 279.618 119.558 277.929 119.558H242.655C240.928 119.558 239.522 120.948 239.497 122.674L239.502 122.67Z" fill="#E6E6E6"/>
<path d="M252.926 141.199L252.106 141.158L252.409 135.081C252.573 131.809 255.267 129.185 258.543 129.107L273.045 128.771C275.973 128.722 278.4 130.94 278.56 133.868L278.868 139.424L278.048 139.469L277.74 133.913C277.601 131.432 275.53 129.53 273.062 129.591L258.559 129.927C255.71 129.993 253.369 132.277 253.225 135.122L252.922 141.199H252.926Z" fill="#3F3D56"/>
<path d="M252.347 170.63L251.531 170.548L253.299 153.303C253.627 150.113 256.288 147.599 259.49 147.456L273.636 146.82C275.419 146.738 277.113 147.37 278.408 148.596C279.704 149.822 280.426 151.478 280.446 153.262L280.606 168.277L279.786 168.285L279.626 153.27C279.61 151.712 278.978 150.264 277.847 149.19C276.715 148.116 275.226 147.567 273.677 147.636L259.531 148.272C256.73 148.399 254.406 150.592 254.119 153.381L252.351 170.626L252.347 170.63Z" fill="#3F3D56"/>
<path d="M246.008 169.437L245.188 169.425L245.705 130.013C245.742 127.32 247.878 125.146 250.572 125.064L278.453 124.244L278.478 125.064L250.596 125.885C248.341 125.95 246.554 127.767 246.525 130.022L246.008 169.433V169.437Z" fill="#3F3D56"/>
<path d="M246.082 163.824H245.512V127.93C245.512 126.795 244.59 125.868 243.45 125.868H240.264V125.048H243.45C244.954 125.048 246.193 126.208 246.32 127.676C246.328 127.758 246.332 127.844 246.332 127.93V144.926L246.082 163.824Z" fill="#3F3D56"/>
<path d="M194.141 20.0459C194.141 25.3023 189.881 29.5625 184.624 29.5625C179.368 29.5625 175.108 25.3023 175.108 20.0459C175.108 14.7894 179.368 10.5293 184.624 10.5293C189.881 10.5293 194.141 14.7894 194.141 20.0459Z" fill="#A0616A"/>
<path d="M183.866 7.25326C184.14 7.41317 184.51 7.17125 184.6 6.86374C184.69 6.55622 184.583 6.23231 184.485 5.92889C184.313 5.42046 184.145 4.91614 183.972 4.40771C183.607 3.32936 183.222 2.2141 182.435 1.39406C181.246 0.155796 179.351 -0.15992 177.65 0.0696919C175.464 0.364907 173.308 1.54577 172.291 3.50567C171.274 5.46557 171.709 8.19631 173.546 9.41817C170.926 12.4195 170.015 15.7653 170.159 19.7425C170.302 23.7238 174.64 27.3853 177.469 30.1898C178.101 29.8085 178.675 28.0126 178.326 27.3607C177.978 26.7087 178.478 25.9543 178.048 25.3516C177.617 24.7529 177.256 25.7083 177.691 25.1097C177.966 24.7324 176.895 23.8673 177.301 23.6418C179.274 22.5511 179.93 20.091 181.168 18.209C182.664 15.9375 185.219 14.3999 187.929 14.1457C189.422 14.0063 190.996 14.2605 192.218 15.1257C193.44 15.9908 194.231 17.5366 193.948 19.0086C194.682 18.2623 195.047 17.1717 194.912 16.1343C194.772 15.097 194.137 14.1375 193.231 13.6086C193.78 11.7922 193.309 9.70108 192.033 8.29881C190.758 6.89244 185.588 7.13435 183.726 7.50337L183.87 7.25736L183.866 7.25326Z" fill="#2F2E41"/>
<path d="M183.579 14.199C181.114 14.4655 179.335 16.6018 177.83 18.574C176.965 19.7097 176.055 20.9644 176.079 22.3954C176.1 23.8386 177.068 25.081 177.531 26.4464C178.285 28.6851 177.551 31.3461 175.755 32.8796C177.531 33.2158 179.45 31.8873 179.753 30.1037C180.11 28.0331 178.54 26.0322 178.724 23.937C178.888 22.0919 180.344 20.6733 181.578 19.2915C182.816 17.9097 183.976 16.081 183.406 14.3179L183.579 14.199Z" fill="#2F2E41"/>
</g>
<defs>
<clipPath id="clip0_212_1612">
<rect width="300" height="178.371" fill="white"/>
</clipPath>
</defs>
</svg>
