<svg width="300" height="247" viewBox="0 0 300 247" fill="none" xmlns="http://www.w3.org/2000/svg">
<g clip-path="url(#clip0_212_1780)">
<path d="M40.2067 56.9531C32.1813 56.9563 28.7337 68.5768 20.88 70.2281C17.3723 70.9657 13.7933 69.4974 10.2095 69.4339C6.62562 69.3704 2.33881 71.9726 3.09612 75.4762L71.4209 74.4461C64.3587 73.7128 57.7529 70.6097 52.6796 65.6424C48.9765 61.9595 45.4292 56.9509 40.2067 56.9531Z" fill="#F0F0F0"/>
<path d="M196.92 178.873C186.936 178.872 177.276 175.331 169.657 168.878C162.039 162.426 156.955 153.481 155.311 143.633L155.297 143.552L155.35 143.489C158.049 140.257 160.23 136.627 161.817 132.727C159.929 135.146 157.648 137.232 155.07 138.897L154.805 139.074L154.79 138.756C154.756 138.057 154.739 137.363 154.739 136.693C154.716 129.52 156.532 122.462 160.015 116.191C163.497 109.921 168.53 104.649 174.631 100.878C163.954 89.7976 158.002 75.0005 158.032 59.6128C158.032 26.7422 184.78 -1.4909e-06 217.657 -1.4909e-06C230.192 -0.0177257 242.413 3.92189 252.578 11.2573C262.742 18.5927 270.332 28.9496 274.265 40.8517L274.318 41.012L274.162 41.0753C270.103 42.7188 266.366 43.5085 262.793 43.47C266.866 44.6232 271.093 45.1343 275.323 44.985L275.468 44.98L275.504 45.1213C276.686 49.8611 277.283 54.7278 277.282 59.6128C277.282 59.789 277.281 59.9652 277.279 60.1412C277.268 63.9395 278.057 67.6976 279.595 71.1705C281.134 74.6434 283.386 77.7531 286.207 80.2971C290.713 84.3967 294.278 89.4238 296.655 95.0326C299.033 100.641 300.167 106.699 299.98 112.788C299.793 118.877 298.289 124.853 295.572 130.305C292.855 135.758 288.988 140.557 284.239 144.372L284.153 144.441L284.052 144.396C277.816 141.566 273.473 138.408 270.515 134.53C272.515 139.413 275.431 143.868 279.105 147.655L279.265 147.82L279.067 147.935C272.763 151.607 265.616 153.583 258.321 153.67C251.026 153.757 243.834 151.952 237.444 148.431C234.878 157.198 229.545 164.9 222.241 170.387C214.937 175.873 206.055 178.85 196.92 178.873Z" fill="#FF7686"/>
<path d="M181.892 246.061C181.708 246.06 181.53 245.994 181.391 245.873C181.251 245.752 181.161 245.585 181.135 245.402C181.102 245.174 177.913 222.173 180.777 191.604C183.422 163.372 191.917 122.709 217.363 89.3136C217.424 89.2335 217.501 89.1661 217.588 89.1154C217.675 89.0647 217.771 89.0317 217.871 89.0182C217.97 89.0046 218.072 89.0109 218.169 89.0366C218.267 89.0624 218.358 89.107 218.438 89.168C218.518 89.2291 218.585 89.3053 218.636 89.3923C218.687 89.4794 218.72 89.5756 218.733 89.6754C218.746 89.7752 218.74 89.8766 218.714 89.974C218.688 90.0713 218.644 90.1626 218.583 90.2427C193.356 123.35 184.93 163.715 182.303 191.747C179.456 222.138 182.62 244.959 182.652 245.186C182.667 245.295 182.659 245.406 182.628 245.511C182.597 245.616 182.544 245.714 182.472 245.797C182.4 245.88 182.311 245.946 182.211 245.992C182.111 246.037 182.002 246.061 181.892 246.061Z" fill="#3F3D56"/>
<path d="M194.613 133.472C194.451 133.472 194.293 133.421 194.162 133.326C194.031 133.231 193.934 133.097 193.884 132.943C193.833 132.789 193.833 132.623 193.883 132.469C193.933 132.315 194.031 132.181 194.162 132.086C194.254 132.019 203.563 125.311 217.48 120.215C230.345 115.505 249.909 111.235 270.049 117.645C270.145 117.676 270.234 117.725 270.311 117.79C270.388 117.855 270.452 117.934 270.498 118.023C270.544 118.113 270.573 118.211 270.581 118.311C270.59 118.411 270.578 118.512 270.548 118.608C270.517 118.704 270.468 118.793 270.403 118.87C270.338 118.947 270.259 119.01 270.169 119.057C270.08 119.103 269.982 119.131 269.882 119.139C269.781 119.148 269.68 119.136 269.584 119.106C249.857 112.828 230.648 117.027 218.007 121.655C204.289 126.678 195.154 133.26 195.063 133.326C194.932 133.421 194.775 133.472 194.613 133.472Z" fill="#3F3D56"/>
<path d="M40.0231 225.176L42.6126 225.986L59.9892 170.459C59.2787 170.278 58.5258 170.376 57.8853 170.733C57.2448 171.09 56.7654 171.679 56.5455 172.378L40.0231 225.176Z" fill="#3F3D56"/>
<path d="M97.1329 152.744H85.6775V119.073H97.1329C99.3245 119.075 101.426 119.947 102.975 121.496C104.525 123.046 105.397 125.147 105.399 127.339V144.478C105.397 146.669 104.525 148.77 102.975 150.32C101.426 151.87 99.3245 152.741 97.1329 152.744Z" fill="#2F2E41"/>
<path d="M95.5384 134.706C95.1558 134.705 94.789 134.553 94.5185 134.283C94.2479 134.012 94.0958 133.645 94.0953 133.263V120.756H96.9815V133.263C96.981 133.645 96.8289 134.012 96.5583 134.283C96.2878 134.553 95.921 134.705 95.5384 134.706Z" fill="#3F3D56"/>
<path d="M99.0077 150.098H90.6259C90.1429 150.098 89.6798 149.906 89.3383 149.564C88.9967 149.222 88.8046 148.759 88.8041 148.276V143.262C88.8046 142.779 88.9967 142.316 89.3383 141.974C89.6798 141.633 90.1429 141.441 90.6259 141.44H99.0077C99.4908 141.441 99.9538 141.633 100.295 141.974C100.637 142.316 100.829 142.779 100.83 143.262V148.276C100.829 148.759 100.637 149.222 100.295 149.564C99.9538 149.906 99.4908 150.098 99.0077 150.098Z" fill="#3F3D56"/>
<path d="M74.5682 115.569C74.3713 115.569 74.1803 115.501 74.0279 115.376C73.9335 115.299 73.856 115.204 73.8002 115.096C73.7445 114.987 73.7118 114.869 73.7041 114.747C73.4338 110.432 74.1834 106.114 75.8922 102.142C77.0501 99.4615 78.3821 97.7341 80.0842 96.706C82.3549 95.3346 85.4706 95.225 88.6323 96.4055C90.4392 97.0801 91.7424 97.9619 92.6161 99.1011C93.782 100.621 94.1477 102.571 94.3692 104.452C94.7034 107.298 94.7819 110.169 94.6037 113.028C94.5957 113.176 94.5485 113.319 94.4671 113.443C94.3857 113.566 94.2729 113.666 94.1403 113.732C93.9969 113.802 93.8376 113.833 93.6783 113.823C93.519 113.812 93.3652 113.76 93.2322 113.672C93.1787 113.637 93.1234 113.605 93.0666 113.575C92.7785 113.431 92.4601 113.358 92.1379 113.362C91.8157 113.366 91.4992 113.447 91.2149 113.599C91.0064 113.722 90.809 113.864 90.6252 114.022L89.4885 114.942C89.3482 115.053 89.1772 115.119 88.9984 115.131C88.8197 115.142 88.6417 115.098 88.4885 115.005C87.6641 114.537 86.7427 114.265 85.7961 114.21C84.5392 114.164 83.2809 114.255 82.0439 114.483L74.6967 115.56C74.6541 115.566 74.6112 115.569 74.5682 115.569Z" fill="#2F2E41"/>
<path d="M73.5874 238.112H69.6637L67.7971 222.978H73.5881L73.5874 238.112Z" fill="#FFB6B6"/>
<path d="M75.6981 245.562H72.9139L72.417 242.934L71.1442 245.562H63.7599C63.4059 245.562 63.0612 245.449 62.7761 245.239C62.491 245.03 62.2804 244.734 62.1751 244.396C62.0697 244.058 62.0752 243.696 62.1906 243.361C62.306 243.026 62.5254 242.737 62.8167 242.536L68.7135 238.464V235.806L74.916 236.176L75.6981 245.562Z" fill="#2F2E41"/>
<path d="M118.743 234.755L115.125 236.276L107.539 223.048L112.877 220.804L118.743 234.755Z" fill="#FFB6B6"/>
<path d="M123.576 240.805L121.009 241.884L119.532 239.654L119.378 242.57L112.571 245.432C112.245 245.57 111.883 245.599 111.539 245.516C111.195 245.433 110.886 245.243 110.658 244.972C110.43 244.701 110.294 244.365 110.271 244.012C110.248 243.658 110.338 243.307 110.529 243.009L114.386 236.969L113.356 234.519L119.217 232.456L123.576 240.805Z" fill="#2F2E41"/>
<path d="M71.7539 135.04L70.6295 150.103L63.1723 172.599L60.1774 170.858L64.2405 147.98L65.6203 134.781L71.7539 135.04Z" fill="#FFB6B6"/>
<path d="M61.433 175.88C63.1663 175.88 64.5715 174.475 64.5715 172.741C64.5715 171.008 63.1663 169.603 61.433 169.603C59.6996 169.603 58.2944 171.008 58.2944 172.741C58.2944 174.475 59.6996 175.88 61.433 175.88Z" fill="#FFB6B6"/>
<path d="M90.8887 152.389V156.544C90.8887 156.544 97.3203 167.878 94.7014 172.741L104.357 199.155C104.357 199.155 117.452 212.249 116.329 221.603L117.078 224.596L108.473 228.337L106.602 225.718L92.0111 200.651L79.6649 177.83L77.4201 204.767C77.4201 204.767 78.9166 225.718 74.8012 227.963L74.4271 231.33H65.694V228.129C65.694 228.129 62.455 216.739 64.3257 208.134L63.5774 171.843C63.5774 171.843 66.9445 156.504 71.06 153.885L72.5565 150.144L90.8887 152.389Z" fill="#2F2E41"/>
<path d="M97.7606 123.587L89.6055 119.769L87.2516 115.666L79.3361 116.115L76.9409 120.025L69.8955 121.453L70.9308 146.917C70.4696 147.716 70.3052 148.652 70.4667 149.559C70.7139 151.155 71.9693 149.9 70.7139 151.155C69.4584 152.411 68.5122 151.78 69.1422 152.88C69.7723 153.98 68.2227 155.695 68.2227 155.695C68.2227 155.695 88.2647 165.903 93.9265 152.88C93.9265 152.88 95.0428 149.071 93.157 141.09C91.2712 133.109 97.7606 123.587 97.7606 123.587Z" fill="#E4E4E4"/>
<path d="M72.211 123.074L69.8955 121.453C69.8955 121.453 66.6929 122.767 66.5849 125.427C66.4769 128.087 64.636 136.047 64.636 136.047L71.9471 139.978L72.211 123.074Z" fill="#E4E4E4"/>
<path d="M99.6865 136.295L98.5625 151.358L86.0835 170.088L83.089 168.348L92.1735 149.235L93.5533 136.037L99.6865 136.295Z" fill="#FFB6B6"/>
<path d="M93.9461 124.438L97.7606 123.587C97.7606 123.587 100.059 124.321 100.373 127.773C100.687 131.226 100.95 137.234 100.95 137.234L92.9449 143.121L90.9574 134.678L93.9461 124.438Z" fill="#E4E4E4"/>
<path d="M84.0304 173.369C85.7637 173.369 87.1689 171.964 87.1689 170.231C87.1689 168.497 85.7637 167.092 84.0304 167.092C82.297 167.092 80.8918 168.497 80.8918 170.231C80.8918 171.964 82.297 173.369 84.0304 173.369Z" fill="#FFB6B6"/>
<path d="M82.5783 114.322C86.6171 114.322 89.8911 111.048 89.8911 107.009C89.8911 102.97 86.6171 99.6963 82.5783 99.6963C78.5396 99.6963 75.2655 102.97 75.2655 107.009C75.2655 111.048 78.5396 114.322 82.5783 114.322Z" fill="#FFB7B7"/>
<path d="M76.6218 105.907H76.6215C75.6899 105.906 74.7572 105.905 73.8233 105.903C73.712 105.903 73.6019 105.88 73.4996 105.836C73.3972 105.792 73.3046 105.729 73.2272 105.649C73.151 105.571 73.0914 105.478 73.0521 105.376C73.0128 105.274 72.9945 105.165 72.9984 105.056C73.0673 103.506 73.5101 101.996 74.2891 100.655C75.068 99.3136 76.16 98.1806 77.4718 97.3527C78.851 96.5116 80.4249 96.0426 82.0395 95.9915C83.6542 95.9405 85.2545 96.3091 86.6842 97.0615C88.1138 97.8138 89.3238 98.924 90.1961 100.284C91.0684 101.644 91.5731 103.206 91.6608 104.819C91.667 104.928 91.6514 105.037 91.615 105.14C91.5785 105.243 91.522 105.338 91.4487 105.419C91.3754 105.5 91.2867 105.565 91.1879 105.611C91.089 105.658 90.9819 105.684 90.8729 105.688C87.6366 105.825 84.0466 105.892 79.2326 105.904H79.2302C79.0664 105.904 78.9062 105.856 78.7702 105.765C78.6342 105.673 78.5286 105.543 78.467 105.391L78.3896 105.202C78.3488 105.102 78.2774 105.018 78.1857 104.961C78.094 104.904 77.9866 104.878 77.8791 104.887C77.7716 104.895 77.6695 104.937 77.5874 105.007C77.5053 105.077 77.4475 105.171 77.4223 105.275C77.3795 105.455 77.2771 105.616 77.1319 105.73C76.9866 105.845 76.8069 105.907 76.6218 105.907Z" fill="#2F2E41"/>
<path d="M92.9908 142.786C91.0254 140.937 90.1806 138.253 90.1671 135.603C90.1517 132.577 91.2472 129.702 92.664 127.07C93.5209 125.479 94.4972 123.956 95.4741 122.436C95.8028 121.925 94.9881 121.452 94.6611 121.961C91.3557 127.102 87.7158 133.192 89.8474 139.51C90.3365 141.008 91.1875 142.362 92.325 143.452C92.7661 143.867 93.4332 143.203 92.9908 142.786Z" fill="#3F3D56"/>
<path d="M40.0732 198.971C38.4538 198.461 36.723 198.417 35.08 198.846C35.0762 198.848 35.0734 198.847 35.0697 198.849C33.7963 199.18 32.6092 199.782 31.5894 200.613C31.5302 200.661 31.4739 200.709 31.4175 200.758C30.1253 201.866 29.1713 203.316 28.6647 204.941L21.6775 227.269C21.1578 228.921 21.1222 230.688 21.5752 232.361C21.6026 232.454 21.63 232.548 21.6575 232.642C21.9967 233.75 22.5425 234.784 23.2662 235.689C23.2707 235.693 23.2744 235.699 23.2769 235.705C24.4066 237.107 25.9281 238.142 27.6476 238.677L40.8253 242.801L53.2509 203.095L40.0732 198.971Z" fill="#FF7686"/>
<path d="M60.8525 170.729L43.881 224.961C43.8276 225.131 43.8083 225.31 43.8241 225.488C43.8399 225.665 43.8905 225.838 43.9731 225.996C44.0557 226.154 44.1686 226.294 44.3054 226.408C44.4421 226.523 44.6001 226.609 44.7702 226.662C44.9403 226.715 45.1193 226.735 45.2968 226.719C45.4744 226.703 45.647 226.652 45.8049 226.569C45.9628 226.487 46.1029 226.374 46.2171 226.237C46.3313 226.1 46.4174 225.942 46.4705 225.772L62.5877 174.269C62.8058 173.569 62.7475 172.812 62.4248 172.154C62.1021 171.495 61.5394 170.985 60.8525 170.729Z" fill="#3F3D56"/>
<path d="M39.6859 245.776C41.0278 245.776 42.1156 244.688 42.1156 243.346C42.1156 242.004 41.0278 240.916 39.6859 240.916C38.3439 240.916 37.2561 242.004 37.2561 243.346C37.2561 244.688 38.3439 245.776 39.6859 245.776Z" fill="#3F3D56"/>
<path d="M23.8611 240.824C25.203 240.824 26.2909 239.736 26.2909 238.394C26.2909 237.052 25.203 235.964 23.8611 235.964C22.5192 235.964 21.4313 237.052 21.4313 238.394C21.4313 239.736 22.5192 240.824 23.8611 240.824Z" fill="#3F3D56"/>
<path d="M35.08 198.846C32.5635 206.736 25.9712 227.368 23.2769 235.705C23.2744 235.699 23.2707 235.693 23.2662 235.689C22.5425 234.784 21.9967 233.75 21.6575 232.642C21.6301 232.548 21.6027 232.455 21.5752 232.361C24.464 223.301 29.3022 208.022 31.4175 200.758C31.4739 200.709 31.5302 200.661 31.5894 200.613C32.6092 199.782 33.7963 199.18 35.0697 198.849C35.0734 198.847 35.0762 198.848 35.08 198.846Z" fill="#3F3D56"/>
<path d="M233.628 245.935H0.428946C0.315392 245.934 0.206605 245.889 0.126426 245.809C0.0462479 245.728 0.0012207 245.619 0.0012207 245.506C0.0012207 245.392 0.0462479 245.283 0.126426 245.203C0.206605 245.122 0.315392 245.077 0.428946 245.077H233.628C233.742 245.077 233.851 245.122 233.931 245.203C234.011 245.283 234.056 245.392 234.056 245.506C234.056 245.619 234.011 245.728 233.931 245.809C233.851 245.889 233.742 245.934 233.628 245.935Z" fill="#CACACA"/>
<path d="M113.205 20.9692C109.502 17.2863 105.954 12.2777 100.732 12.2798C92.7063 12.2831 89.2588 23.9036 81.405 25.5549C77.8974 26.2924 74.3184 24.8242 70.7346 24.7607C67.1507 24.6972 62.8639 27.2994 63.6212 30.8029L131.946 29.7729C124.884 29.0396 118.278 25.9365 113.205 20.9692Z" fill="#F0F0F0"/>
<path d="M265.374 5.6023C257.349 5.60557 253.901 17.226 246.048 18.8774C242.54 19.6149 238.961 18.1467 235.377 18.0831C231.793 18.0196 227.506 20.6219 228.264 24.1254L296.588 23.0953C289.526 22.362 282.92 19.2589 277.847 14.2916C274.144 10.6088 270.597 5.60014 265.374 5.6023Z" fill="#F0F0F0"/>
</g>
<defs>
<clipPath id="clip0_212_1780">
<rect width="300" height="246.061" fill="white"/>
</clipPath>
</defs>
</svg>
